<mxfile host="app.diagrams.net" agent="Mozilla/5.0 (Windows NT 10.0; Win64; x64; rv:131.0) Gecko/20100101 Firefox/131.0" version="24.8.2">
  <diagram name="Page-1" id="hbLQCqh2vZ0tYdXETn6N">
    <mxGraphModel grid="1" page="1" gridSize="10" guides="1" tooltips="1" connect="1" arrows="1" fold="1" pageScale="1" pageWidth="850" pageHeight="1100" math="0" shadow="0">
      <root>
        <mxCell id="0" />
        <mxCell id="1" parent="0" />
        <mxCell id="W-AfqyP43kVuN8w4P5an-43" style="edgeStyle=orthogonalEdgeStyle;rounded=0;orthogonalLoop=1;jettySize=auto;html=1;exitX=0.5;exitY=1;exitDx=0;exitDy=0;entryX=0;entryY=0.5;entryDx=0;entryDy=0;endArrow=none;endFill=0;" edge="1" parent="1" source="W-AfqyP43kVuN8w4P5an-1" target="W-AfqyP43kVuN8w4P5an-41">
          <mxGeometry relative="1" as="geometry" />
        </mxCell>
        <mxCell id="W-AfqyP43kVuN8w4P5an-1" value="RECINTE" style="rounded=0;whiteSpace=wrap;html=1;fillColor=#fff2cc;strokeColor=#d6b656;" vertex="1" parent="1">
          <mxGeometry x="130" y="230" width="120" height="60" as="geometry" />
        </mxCell>
        <mxCell id="W-AfqyP43kVuN8w4P5an-12" style="edgeStyle=orthogonalEdgeStyle;rounded=0;orthogonalLoop=1;jettySize=auto;html=1;exitX=1;exitY=1;exitDx=0;exitDy=0;entryX=0.25;entryY=0;entryDx=0;entryDy=0;endArrow=none;endFill=0;" edge="1" parent="1" source="W-AfqyP43kVuN8w4P5an-2" target="W-AfqyP43kVuN8w4P5an-1">
          <mxGeometry relative="1" as="geometry">
            <Array as="points">
              <mxPoint x="42" y="170" />
              <mxPoint x="160" y="170" />
            </Array>
          </mxGeometry>
        </mxCell>
        <mxCell id="W-AfqyP43kVuN8w4P5an-2" value="Nom" style="ellipse;whiteSpace=wrap;html=1;fillColor=#f8cecc;strokeColor=#b85450;" vertex="1" parent="1">
          <mxGeometry x="-40" y="60" width="120" height="80" as="geometry" />
        </mxCell>
        <mxCell id="W-AfqyP43kVuN8w4P5an-13" style="edgeStyle=orthogonalEdgeStyle;rounded=0;orthogonalLoop=1;jettySize=auto;html=1;exitX=0.5;exitY=1;exitDx=0;exitDy=0;entryX=0.5;entryY=0;entryDx=0;entryDy=0;endArrow=none;endFill=0;" edge="1" parent="1" source="W-AfqyP43kVuN8w4P5an-3" target="W-AfqyP43kVuN8w4P5an-1">
          <mxGeometry relative="1" as="geometry">
            <Array as="points">
              <mxPoint x="140" y="150" />
              <mxPoint x="190" y="150" />
            </Array>
          </mxGeometry>
        </mxCell>
        <mxCell id="W-AfqyP43kVuN8w4P5an-3" value="&lt;u&gt;IdRecinte&lt;/u&gt;" style="ellipse;whiteSpace=wrap;html=1;fillColor=#f8cecc;strokeColor=#b85450;" vertex="1" parent="1">
          <mxGeometry x="100" y="40" width="120" height="80" as="geometry" />
        </mxCell>
        <mxCell id="W-AfqyP43kVuN8w4P5an-4" value="MetresQuadratsEscenari" style="ellipse;whiteSpace=wrap;html=1;fillColor=#f8cecc;strokeColor=#b85450;" vertex="1" parent="1">
          <mxGeometry x="-180" y="140" width="170" height="100" as="geometry" />
        </mxCell>
        <mxCell id="W-AfqyP43kVuN8w4P5an-6" value="Aforament" style="ellipse;whiteSpace=wrap;html=1;fillColor=#f8cecc;strokeColor=#b85450;" vertex="1" parent="1">
          <mxGeometry x="230" y="50" width="120" height="80" as="geometry" />
        </mxCell>
        <mxCell id="W-AfqyP43kVuN8w4P5an-7" value="Lavabos" style="ellipse;whiteSpace=wrap;html=1;fillColor=#f8cecc;strokeColor=#b85450;" vertex="1" parent="1">
          <mxGeometry x="365" y="90" width="120" height="80" as="geometry" />
        </mxCell>
        <mxCell id="W-AfqyP43kVuN8w4P5an-16" style="edgeStyle=orthogonalEdgeStyle;rounded=0;orthogonalLoop=1;jettySize=auto;html=1;exitX=0;exitY=0.5;exitDx=0;exitDy=0;entryX=1;entryY=0;entryDx=0;entryDy=0;endArrow=none;endFill=0;" edge="1" parent="1" source="W-AfqyP43kVuN8w4P5an-8" target="W-AfqyP43kVuN8w4P5an-1">
          <mxGeometry relative="1" as="geometry" />
        </mxCell>
        <mxCell id="W-AfqyP43kVuN8w4P5an-8" value="EscenariCobert" style="ellipse;whiteSpace=wrap;html=1;fillColor=#f8cecc;strokeColor=#b85450;" vertex="1" parent="1">
          <mxGeometry x="300" y="170" width="120" height="80" as="geometry" />
        </mxCell>
        <mxCell id="W-AfqyP43kVuN8w4P5an-10" style="edgeStyle=orthogonalEdgeStyle;rounded=0;orthogonalLoop=1;jettySize=auto;html=1;exitX=1;exitY=0.5;exitDx=0;exitDy=0;entryX=0;entryY=0.5;entryDx=0;entryDy=0;endArrow=none;endFill=0;" edge="1" parent="1" source="W-AfqyP43kVuN8w4P5an-9" target="W-AfqyP43kVuN8w4P5an-1">
          <mxGeometry relative="1" as="geometry" />
        </mxCell>
        <mxCell id="W-AfqyP43kVuN8w4P5an-9" value="MetresQuadratsEspectadors" style="ellipse;whiteSpace=wrap;html=1;fillColor=#f8cecc;strokeColor=#b85450;" vertex="1" parent="1">
          <mxGeometry x="-100" y="250" width="170" height="100" as="geometry" />
        </mxCell>
        <mxCell id="W-AfqyP43kVuN8w4P5an-11" style="edgeStyle=orthogonalEdgeStyle;rounded=0;orthogonalLoop=1;jettySize=auto;html=1;exitX=1;exitY=0.5;exitDx=0;exitDy=0;entryX=0.075;entryY=-0.017;entryDx=0;entryDy=0;entryPerimeter=0;endArrow=none;endFill=0;" edge="1" parent="1" source="W-AfqyP43kVuN8w4P5an-4" target="W-AfqyP43kVuN8w4P5an-1">
          <mxGeometry relative="1" as="geometry" />
        </mxCell>
        <mxCell id="W-AfqyP43kVuN8w4P5an-14" style="edgeStyle=orthogonalEdgeStyle;rounded=0;orthogonalLoop=1;jettySize=auto;html=1;exitX=0.5;exitY=1;exitDx=0;exitDy=0;entryX=0.658;entryY=-0.017;entryDx=0;entryDy=0;entryPerimeter=0;endArrow=none;endFill=0;" edge="1" parent="1" source="W-AfqyP43kVuN8w4P5an-6" target="W-AfqyP43kVuN8w4P5an-1">
          <mxGeometry relative="1" as="geometry">
            <Array as="points">
              <mxPoint x="290" y="140" />
              <mxPoint x="209" y="140" />
            </Array>
          </mxGeometry>
        </mxCell>
        <mxCell id="W-AfqyP43kVuN8w4P5an-15" style="edgeStyle=orthogonalEdgeStyle;rounded=0;orthogonalLoop=1;jettySize=auto;html=1;exitX=0;exitY=1;exitDx=0;exitDy=0;entryX=0.833;entryY=0;entryDx=0;entryDy=0;entryPerimeter=0;endArrow=none;endFill=0;" edge="1" parent="1" source="W-AfqyP43kVuN8w4P5an-7" target="W-AfqyP43kVuN8w4P5an-1">
          <mxGeometry relative="1" as="geometry" />
        </mxCell>
        <mxCell id="W-AfqyP43kVuN8w4P5an-30" style="edgeStyle=orthogonalEdgeStyle;rounded=0;orthogonalLoop=1;jettySize=auto;html=1;exitX=1;exitY=0.5;exitDx=0;exitDy=0;entryX=0.5;entryY=0;entryDx=0;entryDy=0;endArrow=none;endFill=0;" edge="1" parent="1" source="W-AfqyP43kVuN8w4P5an-17" target="W-AfqyP43kVuN8w4P5an-29">
          <mxGeometry relative="1" as="geometry">
            <Array as="points">
              <mxPoint x="825" y="230" />
              <mxPoint x="825" y="200" />
              <mxPoint x="915" y="200" />
            </Array>
          </mxGeometry>
        </mxCell>
        <mxCell id="W-AfqyP43kVuN8w4P5an-42" style="edgeStyle=orthogonalEdgeStyle;rounded=0;orthogonalLoop=1;jettySize=auto;html=1;exitX=0.5;exitY=1;exitDx=0;exitDy=0;entryX=1;entryY=0.5;entryDx=0;entryDy=0;endArrow=none;endFill=0;" edge="1" parent="1" source="W-AfqyP43kVuN8w4P5an-17" target="W-AfqyP43kVuN8w4P5an-41">
          <mxGeometry relative="1" as="geometry" />
        </mxCell>
        <mxCell id="W-AfqyP43kVuN8w4P5an-17" value="GRUP" style="rounded=0;whiteSpace=wrap;html=1;fillColor=#fff2cc;strokeColor=#d6b656;" vertex="1" parent="1">
          <mxGeometry x="670" y="200" width="120" height="60" as="geometry" />
        </mxCell>
        <mxCell id="W-AfqyP43kVuN8w4P5an-23" style="edgeStyle=orthogonalEdgeStyle;rounded=0;orthogonalLoop=1;jettySize=auto;html=1;exitX=1;exitY=0.5;exitDx=0;exitDy=0;entryX=0;entryY=0.5;entryDx=0;entryDy=0;endArrow=none;endFill=0;" edge="1" parent="1" source="W-AfqyP43kVuN8w4P5an-18" target="W-AfqyP43kVuN8w4P5an-17">
          <mxGeometry relative="1" as="geometry" />
        </mxCell>
        <mxCell id="W-AfqyP43kVuN8w4P5an-18" value="Nom" style="ellipse;whiteSpace=wrap;html=1;fillColor=#f8cecc;strokeColor=#b85450;" vertex="1" parent="1">
          <mxGeometry x="490" y="250" width="120" height="80" as="geometry" />
        </mxCell>
        <mxCell id="W-AfqyP43kVuN8w4P5an-19" value="&lt;u&gt;IdGrup&lt;/u&gt;" style="ellipse;whiteSpace=wrap;html=1;fillColor=#f8cecc;strokeColor=#b85450;" vertex="1" parent="1">
          <mxGeometry x="540" y="70" width="120" height="80" as="geometry" />
        </mxCell>
        <mxCell id="W-AfqyP43kVuN8w4P5an-20" value="PaÃ­s" style="ellipse;whiteSpace=wrap;html=1;fillColor=#f8cecc;strokeColor=#b85450;" vertex="1" parent="1">
          <mxGeometry x="680" y="60" width="120" height="80" as="geometry" />
        </mxCell>
        <mxCell id="W-AfqyP43kVuN8w4P5an-21" value="NombreComponents" style="ellipse;whiteSpace=wrap;html=1;fillColor=#f8cecc;strokeColor=#b85450;" vertex="1" parent="1">
          <mxGeometry x="850" y="50" width="145" height="90" as="geometry" />
        </mxCell>
        <mxCell id="W-AfqyP43kVuN8w4P5an-28" style="edgeStyle=orthogonalEdgeStyle;rounded=0;orthogonalLoop=1;jettySize=auto;html=1;exitX=1;exitY=0.5;exitDx=0;exitDy=0;entryX=0;entryY=0.25;entryDx=0;entryDy=0;endArrow=none;endFill=0;" edge="1" parent="1" source="W-AfqyP43kVuN8w4P5an-22" target="W-AfqyP43kVuN8w4P5an-17">
          <mxGeometry relative="1" as="geometry" />
        </mxCell>
        <mxCell id="W-AfqyP43kVuN8w4P5an-22" value="Preu" style="ellipse;whiteSpace=wrap;html=1;fillColor=#f8cecc;strokeColor=#b85450;" vertex="1" parent="1">
          <mxGeometry x="485" y="150" width="120" height="80" as="geometry" />
        </mxCell>
        <mxCell id="W-AfqyP43kVuN8w4P5an-24" style="edgeStyle=orthogonalEdgeStyle;rounded=0;orthogonalLoop=1;jettySize=auto;html=1;exitX=1;exitY=1;exitDx=0;exitDy=0;entryX=0.111;entryY=-0.003;entryDx=0;entryDy=0;entryPerimeter=0;endArrow=none;endFill=0;" edge="1" parent="1" source="W-AfqyP43kVuN8w4P5an-19" target="W-AfqyP43kVuN8w4P5an-17">
          <mxGeometry relative="1" as="geometry" />
        </mxCell>
        <mxCell id="W-AfqyP43kVuN8w4P5an-25" style="edgeStyle=orthogonalEdgeStyle;rounded=0;orthogonalLoop=1;jettySize=auto;html=1;exitX=0.5;exitY=1;exitDx=0;exitDy=0;entryX=0.583;entryY=-0.017;entryDx=0;entryDy=0;entryPerimeter=0;endArrow=none;endFill=0;" edge="1" parent="1" source="W-AfqyP43kVuN8w4P5an-20" target="W-AfqyP43kVuN8w4P5an-17">
          <mxGeometry relative="1" as="geometry" />
        </mxCell>
        <mxCell id="W-AfqyP43kVuN8w4P5an-26" style="edgeStyle=orthogonalEdgeStyle;rounded=0;orthogonalLoop=1;jettySize=auto;html=1;exitX=0;exitY=1;exitDx=0;exitDy=0;entryX=0.882;entryY=-0.003;entryDx=0;entryDy=0;entryPerimeter=0;endArrow=none;endFill=0;" edge="1" parent="1" source="W-AfqyP43kVuN8w4P5an-21" target="W-AfqyP43kVuN8w4P5an-17">
          <mxGeometry relative="1" as="geometry">
            <Array as="points">
              <mxPoint x="871" y="150" />
              <mxPoint x="776" y="150" />
            </Array>
          </mxGeometry>
        </mxCell>
        <mxCell id="W-AfqyP43kVuN8w4P5an-31" style="edgeStyle=orthogonalEdgeStyle;rounded=0;orthogonalLoop=1;jettySize=auto;html=1;exitX=0.5;exitY=1;exitDx=0;exitDy=0;entryX=1;entryY=0.75;entryDx=0;entryDy=0;endArrow=none;endFill=0;" edge="1" parent="1" source="W-AfqyP43kVuN8w4P5an-29" target="W-AfqyP43kVuN8w4P5an-17">
          <mxGeometry relative="1" as="geometry" />
        </mxCell>
        <mxCell id="W-AfqyP43kVuN8w4P5an-34" style="edgeStyle=orthogonalEdgeStyle;rounded=0;orthogonalLoop=1;jettySize=auto;html=1;exitX=1;exitY=1;exitDx=0;exitDy=0;entryX=0;entryY=0.5;entryDx=0;entryDy=0;endArrow=none;endFill=0;" edge="1" parent="1" source="W-AfqyP43kVuN8w4P5an-29" target="W-AfqyP43kVuN8w4P5an-33">
          <mxGeometry relative="1" as="geometry" />
        </mxCell>
        <mxCell id="W-AfqyP43kVuN8w4P5an-35" style="edgeStyle=orthogonalEdgeStyle;rounded=0;orthogonalLoop=1;jettySize=auto;html=1;exitX=1;exitY=0;exitDx=0;exitDy=0;entryX=0;entryY=0.5;entryDx=0;entryDy=0;fillColor=#e1d5e7;strokeColor=#9673a6;endArrow=none;endFill=0;" edge="1" parent="1" source="W-AfqyP43kVuN8w4P5an-29">
          <mxGeometry relative="1" as="geometry">
            <mxPoint x="970" y="210" as="targetPoint" />
          </mxGeometry>
        </mxCell>
        <mxCell id="W-AfqyP43kVuN8w4P5an-29" value="SUBSTITUT" style="rhombus;whiteSpace=wrap;html=1;fillColor=#d5e8d4;strokeColor=#82b366;" vertex="1" parent="1">
          <mxGeometry x="860" y="210" width="110" height="100" as="geometry" />
        </mxCell>
        <mxCell id="W-AfqyP43kVuN8w4P5an-32" value="&lt;u&gt;IdPrincipal&lt;/u&gt;" style="ellipse;whiteSpace=wrap;html=1;fillColor=#f8cecc;strokeColor=#b85450;" vertex="1" parent="1">
          <mxGeometry x="970" y="170" width="120" height="80" as="geometry" />
        </mxCell>
        <mxCell id="W-AfqyP43kVuN8w4P5an-33" value="&lt;u&gt;IdSubstitut&lt;/u&gt;" style="ellipse;whiteSpace=wrap;html=1;fillColor=#f8cecc;strokeColor=#b85450;" vertex="1" parent="1">
          <mxGeometry x="970" y="270" width="120" height="80" as="geometry" />
        </mxCell>
        <mxCell id="W-AfqyP43kVuN8w4P5an-36" value="&lt;div style=&quot;font-size: 16px;&quot;&gt;Substitueix&lt;/div&gt;" style="text;html=1;align=center;verticalAlign=middle;resizable=0;points=[];autosize=1;strokeColor=none;fillColor=none;fontSize=16;" vertex="1" parent="1">
          <mxGeometry x="820" y="305" width="100" height="30" as="geometry" />
        </mxCell>
        <mxCell id="W-AfqyP43kVuN8w4P5an-37" value="SubstituÃ¯t" style="text;html=1;align=center;verticalAlign=middle;resizable=0;points=[];autosize=1;strokeColor=none;fillColor=none;fontSize=16;" vertex="1" parent="1">
          <mxGeometry x="825" y="175" width="90" height="30" as="geometry" />
        </mxCell>
        <mxCell id="W-AfqyP43kVuN8w4P5an-40" value="Concert" style="rounded=0;whiteSpace=wrap;html=1;fillColor=#fff2cc;strokeColor=#d6b656;" vertex="1" parent="1">
          <mxGeometry x="465" y="492.5" width="120" height="60" as="geometry" />
        </mxCell>
        <mxCell id="W-AfqyP43kVuN8w4P5an-44" style="edgeStyle=orthogonalEdgeStyle;rounded=0;orthogonalLoop=1;jettySize=auto;html=1;exitX=0.5;exitY=1;exitDx=0;exitDy=0;entryX=0.5;entryY=0;entryDx=0;entryDy=0;endArrow=none;endFill=0;" edge="1" parent="1" source="W-AfqyP43kVuN8w4P5an-41" target="W-AfqyP43kVuN8w4P5an-40">
          <mxGeometry relative="1" as="geometry" />
        </mxCell>
        <mxCell id="W-AfqyP43kVuN8w4P5an-41" value="Actuar" style="rhombus;whiteSpace=wrap;html=1;fillColor=#d5e8d4;strokeColor=#82b366;" vertex="1" parent="1">
          <mxGeometry x="470" y="362.5" width="110" height="100" as="geometry" />
        </mxCell>
        <mxCell id="W-AfqyP43kVuN8w4P5an-46" value="&lt;u&gt;IdConcert&lt;/u&gt;" style="ellipse;whiteSpace=wrap;html=1;fillColor=#f8cecc;strokeColor=#b85450;" vertex="1" parent="1">
          <mxGeometry x="585" y="422.5" width="120" height="80" as="geometry" />
        </mxCell>
        <mxCell id="W-AfqyP43kVuN8w4P5an-58" style="edgeStyle=orthogonalEdgeStyle;rounded=0;orthogonalLoop=1;jettySize=auto;html=1;exitX=0;exitY=0.5;exitDx=0;exitDy=0;endArrow=none;endFill=0;" edge="1" parent="1" source="W-AfqyP43kVuN8w4P5an-47" target="W-AfqyP43kVuN8w4P5an-40">
          <mxGeometry relative="1" as="geometry" />
        </mxCell>
        <mxCell id="W-AfqyP43kVuN8w4P5an-47" value="&lt;u&gt;IdGrup&lt;/u&gt;" style="ellipse;whiteSpace=wrap;html=1;fillColor=#f8cecc;strokeColor=#b85450;" vertex="1" parent="1">
          <mxGeometry x="705" y="472.5" width="120" height="80" as="geometry" />
        </mxCell>
        <mxCell id="W-AfqyP43kVuN8w4P5an-54" style="edgeStyle=orthogonalEdgeStyle;rounded=0;orthogonalLoop=1;jettySize=auto;html=1;exitX=1;exitY=0.5;exitDx=0;exitDy=0;entryX=0.25;entryY=0;entryDx=0;entryDy=0;endArrow=none;endFill=0;" edge="1" parent="1" source="W-AfqyP43kVuN8w4P5an-48" target="W-AfqyP43kVuN8w4P5an-40">
          <mxGeometry relative="1" as="geometry" />
        </mxCell>
        <mxCell id="W-AfqyP43kVuN8w4P5an-48" value="&lt;u&gt;IdRecinte&lt;/u&gt;" style="ellipse;whiteSpace=wrap;html=1;fillColor=#f8cecc;strokeColor=#b85450;" vertex="1" parent="1">
          <mxGeometry x="345" y="422.5" width="120" height="80" as="geometry" />
        </mxCell>
        <mxCell id="W-AfqyP43kVuN8w4P5an-56" value="" style="edgeStyle=orthogonalEdgeStyle;rounded=0;orthogonalLoop=1;jettySize=auto;html=1;endArrow=none;endFill=0;" edge="1" parent="1" source="W-AfqyP43kVuN8w4P5an-49" target="W-AfqyP43kVuN8w4P5an-40">
          <mxGeometry relative="1" as="geometry" />
        </mxCell>
        <mxCell id="W-AfqyP43kVuN8w4P5an-49" value="Data" style="ellipse;whiteSpace=wrap;html=1;fillColor=#f8cecc;strokeColor=#b85450;" vertex="1" parent="1">
          <mxGeometry x="235" y="482.5" width="120" height="80" as="geometry" />
        </mxCell>
        <mxCell id="W-AfqyP43kVuN8w4P5an-50" value="HoraInici" style="ellipse;whiteSpace=wrap;html=1;fillColor=#f8cecc;strokeColor=#b85450;" vertex="1" parent="1">
          <mxGeometry x="305" y="562.5" width="120" height="80" as="geometry" />
        </mxCell>
        <mxCell id="W-AfqyP43kVuN8w4P5an-51" value="HoraFi" style="ellipse;whiteSpace=wrap;html=1;fillColor=#f8cecc;strokeColor=#b85450;" vertex="1" parent="1">
          <mxGeometry x="565" y="612.5" width="120" height="80" as="geometry" />
        </mxCell>
        <mxCell id="W-AfqyP43kVuN8w4P5an-59" style="edgeStyle=orthogonalEdgeStyle;rounded=0;orthogonalLoop=1;jettySize=auto;html=1;exitX=0;exitY=0;exitDx=0;exitDy=0;entryX=1;entryY=0.75;entryDx=0;entryDy=0;endArrow=none;endFill=0;" edge="1" parent="1" source="W-AfqyP43kVuN8w4P5an-52" target="W-AfqyP43kVuN8w4P5an-40">
          <mxGeometry relative="1" as="geometry" />
        </mxCell>
        <mxCell id="W-AfqyP43kVuN8w4P5an-52" value="Preu" style="ellipse;whiteSpace=wrap;html=1;fillColor=#f8cecc;strokeColor=#b85450;" vertex="1" parent="1">
          <mxGeometry x="665" y="552.5" width="120" height="80" as="geometry" />
        </mxCell>
        <mxCell id="W-AfqyP43kVuN8w4P5an-55" style="edgeStyle=orthogonalEdgeStyle;rounded=0;orthogonalLoop=1;jettySize=auto;html=1;exitX=0;exitY=0.5;exitDx=0;exitDy=0;entryX=0.692;entryY=0;entryDx=0;entryDy=0;entryPerimeter=0;endArrow=none;endFill=0;" edge="1" parent="1" source="W-AfqyP43kVuN8w4P5an-46" target="W-AfqyP43kVuN8w4P5an-40">
          <mxGeometry relative="1" as="geometry" />
        </mxCell>
        <mxCell id="W-AfqyP43kVuN8w4P5an-57" style="edgeStyle=orthogonalEdgeStyle;rounded=0;orthogonalLoop=1;jettySize=auto;html=1;exitX=1;exitY=0;exitDx=0;exitDy=0;entryX=0.167;entryY=1;entryDx=0;entryDy=0;entryPerimeter=0;endArrow=none;endFill=0;" edge="1" parent="1" source="W-AfqyP43kVuN8w4P5an-50" target="W-AfqyP43kVuN8w4P5an-40">
          <mxGeometry relative="1" as="geometry" />
        </mxCell>
        <mxCell id="W-AfqyP43kVuN8w4P5an-60" style="edgeStyle=orthogonalEdgeStyle;rounded=0;orthogonalLoop=1;jettySize=auto;html=1;exitX=0.5;exitY=0;exitDx=0;exitDy=0;entryX=0.875;entryY=1.05;entryDx=0;entryDy=0;entryPerimeter=0;endArrow=none;endFill=0;" edge="1" parent="1" source="W-AfqyP43kVuN8w4P5an-51" target="W-AfqyP43kVuN8w4P5an-40">
          <mxGeometry relative="1" as="geometry" />
        </mxCell>
        <mxCell id="W-AfqyP43kVuN8w4P5an-66" value="CARRER" style="rounded=0;whiteSpace=wrap;html=1;fillColor=#fff2cc;strokeColor=#d6b656;" vertex="1" parent="1">
          <mxGeometry x="670" y="857.5" width="120" height="60" as="geometry" />
        </mxCell>
        <mxCell id="W-AfqyP43kVuN8w4P5an-70" style="edgeStyle=orthogonalEdgeStyle;rounded=0;orthogonalLoop=1;jettySize=auto;html=1;exitX=0;exitY=0.5;exitDx=0;exitDy=0;entryX=1;entryY=0.25;entryDx=0;entryDy=0;endArrow=none;endFill=0;" edge="1" parent="1" source="W-AfqyP43kVuN8w4P5an-67" target="W-AfqyP43kVuN8w4P5an-66">
          <mxGeometry relative="1" as="geometry" />
        </mxCell>
        <mxCell id="W-AfqyP43kVuN8w4P5an-67" value="&lt;u&gt;IdCarrer&lt;/u&gt;" style="ellipse;whiteSpace=wrap;html=1;fillColor=#f8cecc;strokeColor=#b85450;" vertex="1" parent="1">
          <mxGeometry x="830" y="802.5" width="120" height="80" as="geometry" />
        </mxCell>
        <mxCell id="W-AfqyP43kVuN8w4P5an-71" style="edgeStyle=orthogonalEdgeStyle;rounded=0;orthogonalLoop=1;jettySize=auto;html=1;exitX=-0.003;exitY=0.47;exitDx=0;exitDy=0;entryX=1;entryY=0.75;entryDx=0;entryDy=0;endArrow=none;endFill=0;exitPerimeter=0;" edge="1" parent="1" source="W-AfqyP43kVuN8w4P5an-69" target="W-AfqyP43kVuN8w4P5an-66">
          <mxGeometry relative="1" as="geometry">
            <Array as="points">
              <mxPoint x="830" y="932.5" />
              <mxPoint x="810" y="932.5" />
              <mxPoint x="810" y="902.5" />
            </Array>
          </mxGeometry>
        </mxCell>
        <mxCell id="W-AfqyP43kVuN8w4P5an-69" value="NomGrup" style="ellipse;whiteSpace=wrap;html=1;fillColor=#f8cecc;strokeColor=#b85450;" vertex="1" parent="1">
          <mxGeometry x="830" y="892.5" width="120" height="80" as="geometry" />
        </mxCell>
        <mxCell id="W-AfqyP43kVuN8w4P5an-85" style="edgeStyle=orthogonalEdgeStyle;rounded=0;orthogonalLoop=1;jettySize=auto;html=1;exitX=1;exitY=0.5;exitDx=0;exitDy=0;entryX=0;entryY=0.5;entryDx=0;entryDy=0;endArrow=none;endFill=0;" edge="1" parent="1" source="W-AfqyP43kVuN8w4P5an-73" target="W-AfqyP43kVuN8w4P5an-84">
          <mxGeometry relative="1" as="geometry" />
        </mxCell>
        <mxCell id="W-AfqyP43kVuN8w4P5an-73" value="PARCELÂ·LA" style="rounded=0;whiteSpace=wrap;html=1;fillColor=#fff2cc;strokeColor=#d6b656;" vertex="1" parent="1">
          <mxGeometry x="255" y="857.5" width="120" height="60" as="geometry" />
        </mxCell>
        <mxCell id="W-AfqyP43kVuN8w4P5an-74" style="edgeStyle=orthogonalEdgeStyle;rounded=0;orthogonalLoop=1;jettySize=auto;html=1;exitX=0;exitY=0.5;exitDx=0;exitDy=0;entryX=1;entryY=0.25;entryDx=0;entryDy=0;endArrow=none;endFill=0;" edge="1" parent="1" source="W-AfqyP43kVuN8w4P5an-75" target="W-AfqyP43kVuN8w4P5an-73">
          <mxGeometry relative="1" as="geometry" />
        </mxCell>
        <mxCell id="W-AfqyP43kVuN8w4P5an-75" value="&lt;u&gt;IdParcelÂ·la&lt;/u&gt;" style="ellipse;whiteSpace=wrap;html=1;fillColor=#f8cecc;strokeColor=#b85450;" vertex="1" parent="1">
          <mxGeometry x="420" y="752.5" width="120" height="80" as="geometry" />
        </mxCell>
        <mxCell id="W-AfqyP43kVuN8w4P5an-76" value="Preu" style="ellipse;whiteSpace=wrap;html=1;fillColor=#f8cecc;strokeColor=#b85450;" vertex="1" parent="1">
          <mxGeometry x="295" y="977.5" width="120" height="80" as="geometry" />
        </mxCell>
        <mxCell id="W-AfqyP43kVuN8w4P5an-77" style="edgeStyle=orthogonalEdgeStyle;rounded=0;orthogonalLoop=1;jettySize=auto;html=1;exitX=0;exitY=0;exitDx=0;exitDy=0;entryX=1;entryY=0.75;entryDx=0;entryDy=0;endArrow=none;endFill=0;" edge="1" parent="1" source="W-AfqyP43kVuN8w4P5an-78" target="W-AfqyP43kVuN8w4P5an-73">
          <mxGeometry relative="1" as="geometry">
            <Array as="points">
              <mxPoint x="395" y="939.5" />
              <mxPoint x="395" y="902.5" />
            </Array>
          </mxGeometry>
        </mxCell>
        <mxCell id="W-AfqyP43kVuN8w4P5an-78" value="IdCarrer" style="ellipse;whiteSpace=wrap;html=1;fillColor=#f8cecc;strokeColor=#b85450;" vertex="1" parent="1">
          <mxGeometry x="405" y="927.5" width="120" height="80" as="geometry" />
        </mxCell>
        <mxCell id="W-AfqyP43kVuN8w4P5an-79" style="edgeStyle=orthogonalEdgeStyle;rounded=0;orthogonalLoop=1;jettySize=auto;html=1;exitX=0.5;exitY=0;exitDx=0;exitDy=0;entryX=0.8;entryY=0.978;entryDx=0;entryDy=0;entryPerimeter=0;endArrow=none;endFill=0;" edge="1" parent="1" source="W-AfqyP43kVuN8w4P5an-76" target="W-AfqyP43kVuN8w4P5an-73">
          <mxGeometry relative="1" as="geometry" />
        </mxCell>
        <mxCell id="W-AfqyP43kVuN8w4P5an-80" value="MetresQuadrats" style="ellipse;whiteSpace=wrap;html=1;fillColor=#f8cecc;strokeColor=#b85450;" vertex="1" parent="1">
          <mxGeometry x="165" y="977.5" width="120" height="80" as="geometry" />
        </mxCell>
        <mxCell id="W-AfqyP43kVuN8w4P5an-81" style="edgeStyle=orthogonalEdgeStyle;rounded=0;orthogonalLoop=1;jettySize=auto;html=1;exitX=0.25;exitY=1;exitDx=0;exitDy=0;entryX=0.711;entryY=0.067;entryDx=0;entryDy=0;entryPerimeter=0;endArrow=none;endFill=0;" edge="1" parent="1" source="W-AfqyP43kVuN8w4P5an-73" target="W-AfqyP43kVuN8w4P5an-80">
          <mxGeometry relative="1" as="geometry" />
        </mxCell>
        <mxCell id="W-AfqyP43kVuN8w4P5an-82" value="Disponible" style="ellipse;whiteSpace=wrap;html=1;fillColor=#f8cecc;strokeColor=#b85450;" vertex="1" parent="1">
          <mxGeometry x="100" y="872.5" width="120" height="80" as="geometry" />
        </mxCell>
        <mxCell id="W-AfqyP43kVuN8w4P5an-83" style="edgeStyle=orthogonalEdgeStyle;rounded=0;orthogonalLoop=1;jettySize=auto;html=1;exitX=1;exitY=0.5;exitDx=0;exitDy=0;entryX=0.013;entryY=0.565;entryDx=0;entryDy=0;entryPerimeter=0;endArrow=none;endFill=0;" edge="1" parent="1" source="W-AfqyP43kVuN8w4P5an-82" target="W-AfqyP43kVuN8w4P5an-73">
          <mxGeometry relative="1" as="geometry" />
        </mxCell>
        <mxCell id="W-AfqyP43kVuN8w4P5an-86" style="edgeStyle=orthogonalEdgeStyle;rounded=0;orthogonalLoop=1;jettySize=auto;html=1;exitX=1;exitY=0.5;exitDx=0;exitDy=0;entryX=0;entryY=0.5;entryDx=0;entryDy=0;endArrow=none;endFill=0;" edge="1" parent="1" source="W-AfqyP43kVuN8w4P5an-84" target="W-AfqyP43kVuN8w4P5an-66">
          <mxGeometry relative="1" as="geometry" />
        </mxCell>
        <mxCell id="W-AfqyP43kVuN8w4P5an-84" value="Ãs" style="rhombus;whiteSpace=wrap;html=1;fillColor=#d5e8d4;strokeColor=#82b366;" vertex="1" parent="1">
          <mxGeometry x="490" y="837.5" width="110" height="100" as="geometry" />
        </mxCell>
        <mxCell id="W-AfqyP43kVuN8w4P5an-89" style="edgeStyle=orthogonalEdgeStyle;rounded=0;orthogonalLoop=1;jettySize=auto;html=1;exitX=1;exitY=0.5;exitDx=0;exitDy=0;entryX=0.5;entryY=1;entryDx=0;entryDy=0;endArrow=none;endFill=0;" edge="1" parent="1" source="W-AfqyP43kVuN8w4P5an-90" target="W-AfqyP43kVuN8w4P5an-120">
          <mxGeometry relative="1" as="geometry">
            <mxPoint x="-150" y="865" as="targetPoint" />
            <Array as="points">
              <mxPoint x="70" y="865" />
              <mxPoint x="70" y="792" />
            </Array>
          </mxGeometry>
        </mxCell>
        <mxCell id="W-AfqyP43kVuN8w4P5an-90" value="Usuari" style="rounded=0;whiteSpace=wrap;html=1;fillColor=#fff2cc;strokeColor=#d6b656;" vertex="1" parent="1">
          <mxGeometry x="-365" y="835" width="120" height="60" as="geometry" />
        </mxCell>
        <mxCell id="W-AfqyP43kVuN8w4P5an-91" style="edgeStyle=orthogonalEdgeStyle;rounded=0;orthogonalLoop=1;jettySize=auto;html=1;exitX=0;exitY=0.5;exitDx=0;exitDy=0;entryX=1;entryY=0.25;entryDx=0;entryDy=0;endArrow=none;endFill=0;" edge="1" parent="1" source="W-AfqyP43kVuN8w4P5an-92" target="W-AfqyP43kVuN8w4P5an-90">
          <mxGeometry relative="1" as="geometry">
            <Array as="points">
              <mxPoint x="-140" y="792" />
              <mxPoint x="-160" y="792" />
              <mxPoint x="-160" y="850" />
            </Array>
          </mxGeometry>
        </mxCell>
        <mxCell id="W-AfqyP43kVuN8w4P5an-92" value="&lt;u&gt;IdUsuari&lt;/u&gt;" style="ellipse;whiteSpace=wrap;html=1;fillColor=#f8cecc;strokeColor=#b85450;" vertex="1" parent="1">
          <mxGeometry x="-140" y="755" width="120" height="80" as="geometry" />
        </mxCell>
        <mxCell id="W-AfqyP43kVuN8w4P5an-93" value="DniPassaport" style="ellipse;whiteSpace=wrap;html=1;fillColor=#f8cecc;strokeColor=#b85450;" vertex="1" parent="1">
          <mxGeometry x="-325" y="955" width="120" height="80" as="geometry" />
        </mxCell>
        <mxCell id="W-AfqyP43kVuN8w4P5an-94" style="edgeStyle=orthogonalEdgeStyle;rounded=0;orthogonalLoop=1;jettySize=auto;html=1;exitX=0;exitY=0;exitDx=0;exitDy=0;entryX=1;entryY=0.75;entryDx=0;entryDy=0;endArrow=none;endFill=0;" edge="1" parent="1" source="W-AfqyP43kVuN8w4P5an-95" target="W-AfqyP43kVuN8w4P5an-90">
          <mxGeometry relative="1" as="geometry">
            <Array as="points">
              <mxPoint x="-225" y="917" />
              <mxPoint x="-225" y="880" />
            </Array>
          </mxGeometry>
        </mxCell>
        <mxCell id="W-AfqyP43kVuN8w4P5an-95" value="Usuari" style="ellipse;whiteSpace=wrap;html=1;fillColor=#f8cecc;strokeColor=#b85450;" vertex="1" parent="1">
          <mxGeometry x="-215" y="905" width="120" height="80" as="geometry" />
        </mxCell>
        <mxCell id="W-AfqyP43kVuN8w4P5an-96" style="edgeStyle=orthogonalEdgeStyle;rounded=0;orthogonalLoop=1;jettySize=auto;html=1;exitX=0.5;exitY=0;exitDx=0;exitDy=0;entryX=0.8;entryY=0.978;entryDx=0;entryDy=0;entryPerimeter=0;endArrow=none;endFill=0;" edge="1" parent="1" source="W-AfqyP43kVuN8w4P5an-93" target="W-AfqyP43kVuN8w4P5an-90">
          <mxGeometry relative="1" as="geometry" />
        </mxCell>
        <mxCell id="W-AfqyP43kVuN8w4P5an-97" value="Mail" style="ellipse;whiteSpace=wrap;html=1;fillColor=#f8cecc;strokeColor=#b85450;" vertex="1" parent="1">
          <mxGeometry x="-455" y="955" width="120" height="80" as="geometry" />
        </mxCell>
        <mxCell id="W-AfqyP43kVuN8w4P5an-98" style="edgeStyle=orthogonalEdgeStyle;rounded=0;orthogonalLoop=1;jettySize=auto;html=1;exitX=0.25;exitY=1;exitDx=0;exitDy=0;entryX=0.711;entryY=0.067;entryDx=0;entryDy=0;entryPerimeter=0;endArrow=none;endFill=0;" edge="1" parent="1" source="W-AfqyP43kVuN8w4P5an-90" target="W-AfqyP43kVuN8w4P5an-97">
          <mxGeometry relative="1" as="geometry" />
        </mxCell>
        <mxCell id="W-AfqyP43kVuN8w4P5an-99" value="Nom" style="ellipse;whiteSpace=wrap;html=1;fillColor=#f8cecc;strokeColor=#b85450;" vertex="1" parent="1">
          <mxGeometry x="-520" y="850" width="120" height="80" as="geometry" />
        </mxCell>
        <mxCell id="W-AfqyP43kVuN8w4P5an-100" style="edgeStyle=orthogonalEdgeStyle;rounded=0;orthogonalLoop=1;jettySize=auto;html=1;exitX=1;exitY=0.5;exitDx=0;exitDy=0;entryX=0.013;entryY=0.565;entryDx=0;entryDy=0;entryPerimeter=0;endArrow=none;endFill=0;" edge="1" parent="1" source="W-AfqyP43kVuN8w4P5an-99" target="W-AfqyP43kVuN8w4P5an-90">
          <mxGeometry relative="1" as="geometry" />
        </mxCell>
        <mxCell id="W-AfqyP43kVuN8w4P5an-101" value="Cognoms" style="ellipse;whiteSpace=wrap;html=1;fillColor=#f8cecc;strokeColor=#b85450;" vertex="1" parent="1">
          <mxGeometry x="-530" y="760" width="120" height="80" as="geometry" />
        </mxCell>
        <mxCell id="W-AfqyP43kVuN8w4P5an-102" style="edgeStyle=orthogonalEdgeStyle;rounded=0;orthogonalLoop=1;jettySize=auto;html=1;exitX=1;exitY=0.5;exitDx=0;exitDy=0;entryX=0;entryY=0.25;entryDx=0;entryDy=0;endArrow=none;endFill=0;" edge="1" parent="1" source="W-AfqyP43kVuN8w4P5an-101" target="W-AfqyP43kVuN8w4P5an-90">
          <mxGeometry relative="1" as="geometry">
            <mxPoint x="-373" y="779" as="targetPoint" />
            <Array as="points">
              <mxPoint x="-390" y="800" />
              <mxPoint x="-390" y="830" />
              <mxPoint x="-373" y="830" />
              <mxPoint x="-373" y="850" />
            </Array>
          </mxGeometry>
        </mxCell>
        <mxCell id="W-AfqyP43kVuN8w4P5an-111" style="edgeStyle=orthogonalEdgeStyle;rounded=0;orthogonalLoop=1;jettySize=auto;html=1;exitX=1;exitY=0.5;exitDx=0;exitDy=0;entryX=0;entryY=0.5;entryDx=0;entryDy=0;endArrow=none;endFill=0;" edge="1" parent="1" source="W-AfqyP43kVuN8w4P5an-112" target="W-AfqyP43kVuN8w4P5an-118">
          <mxGeometry relative="1" as="geometry">
            <mxPoint x="160" y="597.5" as="targetPoint" />
          </mxGeometry>
        </mxCell>
        <mxCell id="W-AfqyP43kVuN8w4P5an-112" value="Lloguer" style="rounded=0;whiteSpace=wrap;html=1;fillColor=#fff2cc;strokeColor=#d6b656;" vertex="1" parent="1">
          <mxGeometry x="-75" y="567.5" width="120" height="60" as="geometry" />
        </mxCell>
        <mxCell id="W-AfqyP43kVuN8w4P5an-114" style="edgeStyle=orthogonalEdgeStyle;rounded=0;orthogonalLoop=1;jettySize=auto;html=1;exitX=0;exitY=0;exitDx=0;exitDy=0;entryX=1;entryY=0.75;entryDx=0;entryDy=0;endArrow=none;endFill=0;" edge="1" parent="1" source="W-AfqyP43kVuN8w4P5an-115" target="W-AfqyP43kVuN8w4P5an-112">
          <mxGeometry relative="1" as="geometry">
            <Array as="points">
              <mxPoint x="65" y="649.5" />
              <mxPoint x="65" y="612.5" />
            </Array>
          </mxGeometry>
        </mxCell>
        <mxCell id="W-AfqyP43kVuN8w4P5an-115" value="&lt;u&gt;IdLloguer&lt;/u&gt;" style="ellipse;whiteSpace=wrap;html=1;fillColor=#f8cecc;strokeColor=#b85450;" vertex="1" parent="1">
          <mxGeometry x="75" y="637.5" width="120" height="80" as="geometry" />
        </mxCell>
        <mxCell id="W-AfqyP43kVuN8w4P5an-116" style="edgeStyle=orthogonalEdgeStyle;rounded=0;orthogonalLoop=1;jettySize=auto;html=1;exitX=0;exitY=0.5;exitDx=0;exitDy=0;entryX=0.8;entryY=0.978;entryDx=0;entryDy=0;entryPerimeter=0;endArrow=none;endFill=0;" edge="1" parent="1" target="W-AfqyP43kVuN8w4P5an-112">
          <mxGeometry relative="1" as="geometry">
            <mxPoint x="220" y="740" as="sourcePoint" />
          </mxGeometry>
        </mxCell>
        <mxCell id="W-AfqyP43kVuN8w4P5an-117" style="edgeStyle=orthogonalEdgeStyle;rounded=0;orthogonalLoop=1;jettySize=auto;html=1;exitX=0;exitY=0.5;exitDx=0;exitDy=0;entryX=0.426;entryY=0.038;entryDx=0;entryDy=0;entryPerimeter=0;endArrow=none;endFill=0;" edge="1" parent="1" source="W-AfqyP43kVuN8w4P5an-112" target="W-AfqyP43kVuN8w4P5an-119">
          <mxGeometry relative="1" as="geometry">
            <mxPoint x="-80" y="692.5" as="targetPoint" />
          </mxGeometry>
        </mxCell>
        <mxCell id="W-AfqyP43kVuN8w4P5an-118" value="IdParcelÂ·la" style="ellipse;whiteSpace=wrap;html=1;fillColor=#f8cecc;strokeColor=#b85450;" vertex="1" parent="1">
          <mxGeometry x="140" y="557.5" width="120" height="80" as="geometry" />
        </mxCell>
        <mxCell id="W-AfqyP43kVuN8w4P5an-119" value="IdUsuari" style="ellipse;whiteSpace=wrap;html=1;fillColor=#f8cecc;strokeColor=#b85450;" vertex="1" parent="1">
          <mxGeometry x="-185" y="647.5" width="120" height="80" as="geometry" />
        </mxCell>
        <mxCell id="W-AfqyP43kVuN8w4P5an-121" style="edgeStyle=orthogonalEdgeStyle;rounded=0;orthogonalLoop=1;jettySize=auto;html=1;exitX=1;exitY=0.5;exitDx=0;exitDy=0;entryX=0.5;entryY=0;entryDx=0;entryDy=0;endArrow=none;endFill=0;" edge="1" parent="1" source="W-AfqyP43kVuN8w4P5an-120" target="W-AfqyP43kVuN8w4P5an-73">
          <mxGeometry relative="1" as="geometry" />
        </mxCell>
        <mxCell id="W-AfqyP43kVuN8w4P5an-120" value="Llogar" style="rhombus;whiteSpace=wrap;html=1;fillColor=#d5e8d4;strokeColor=#82b366;" vertex="1" parent="1">
          <mxGeometry x="165" y="737.5" width="110" height="100" as="geometry" />
        </mxCell>
        <mxCell id="W-AfqyP43kVuN8w4P5an-122" value="DataNaixement" style="ellipse;whiteSpace=wrap;html=1;fillColor=#f8cecc;strokeColor=#b85450;" vertex="1" parent="1">
          <mxGeometry x="-280" y="740" width="120" height="80" as="geometry" />
        </mxCell>
        <mxCell id="W-AfqyP43kVuN8w4P5an-124" style="edgeStyle=orthogonalEdgeStyle;rounded=0;orthogonalLoop=1;jettySize=auto;html=1;exitX=0;exitY=1;exitDx=0;exitDy=0;entryX=0.872;entryY=0.011;entryDx=0;entryDy=0;entryPerimeter=0;endArrow=none;endFill=0;" edge="1" parent="1" source="W-AfqyP43kVuN8w4P5an-122" target="W-AfqyP43kVuN8w4P5an-90">
          <mxGeometry relative="1" as="geometry" />
        </mxCell>
        <mxCell id="W-AfqyP43kVuN8w4P5an-125" value="ACCÃS" style="rounded=0;whiteSpace=wrap;html=1;fillColor=#fff2cc;strokeColor=#d6b656;" vertex="1" parent="1">
          <mxGeometry x="-455" y="400" width="120" height="60" as="geometry" />
        </mxCell>
        <mxCell id="W-AfqyP43kVuN8w4P5an-126" style="edgeStyle=orthogonalEdgeStyle;rounded=0;orthogonalLoop=1;jettySize=auto;html=1;exitX=0;exitY=0.5;exitDx=0;exitDy=0;entryX=1;entryY=0.25;entryDx=0;entryDy=0;endArrow=none;endFill=0;" edge="1" parent="1" source="W-AfqyP43kVuN8w4P5an-127" target="W-AfqyP43kVuN8w4P5an-125">
          <mxGeometry relative="1" as="geometry">
            <Array as="points">
              <mxPoint x="-230" y="357" />
              <mxPoint x="-250" y="357" />
              <mxPoint x="-250" y="415" />
            </Array>
          </mxGeometry>
        </mxCell>
        <mxCell id="W-AfqyP43kVuN8w4P5an-127" value="&lt;u&gt;IdAccÃ©s&lt;/u&gt;" style="ellipse;whiteSpace=wrap;html=1;fillColor=#f8cecc;strokeColor=#b85450;" vertex="1" parent="1">
          <mxGeometry x="-230" y="320" width="120" height="80" as="geometry" />
        </mxCell>
        <mxCell id="W-AfqyP43kVuN8w4P5an-128" value="DataEntrada" style="ellipse;whiteSpace=wrap;html=1;fillColor=#f8cecc;strokeColor=#b85450;" vertex="1" parent="1">
          <mxGeometry x="-415" y="520" width="120" height="80" as="geometry" />
        </mxCell>
        <mxCell id="W-AfqyP43kVuN8w4P5an-129" style="edgeStyle=orthogonalEdgeStyle;rounded=0;orthogonalLoop=1;jettySize=auto;html=1;exitX=0;exitY=0;exitDx=0;exitDy=0;entryX=1;entryY=0.75;entryDx=0;entryDy=0;endArrow=none;endFill=0;" edge="1" parent="1" source="W-AfqyP43kVuN8w4P5an-130" target="W-AfqyP43kVuN8w4P5an-125">
          <mxGeometry relative="1" as="geometry">
            <Array as="points">
              <mxPoint x="-315" y="482" />
              <mxPoint x="-315" y="445" />
            </Array>
          </mxGeometry>
        </mxCell>
        <mxCell id="W-AfqyP43kVuN8w4P5an-130" value="IdUsuari" style="ellipse;whiteSpace=wrap;html=1;fillColor=#f8cecc;strokeColor=#b85450;" vertex="1" parent="1">
          <mxGeometry x="-305" y="470" width="120" height="80" as="geometry" />
        </mxCell>
        <mxCell id="W-AfqyP43kVuN8w4P5an-131" style="edgeStyle=orthogonalEdgeStyle;rounded=0;orthogonalLoop=1;jettySize=auto;html=1;exitX=0.5;exitY=0;exitDx=0;exitDy=0;entryX=0.8;entryY=0.978;entryDx=0;entryDy=0;entryPerimeter=0;endArrow=none;endFill=0;" edge="1" parent="1" source="W-AfqyP43kVuN8w4P5an-128" target="W-AfqyP43kVuN8w4P5an-125">
          <mxGeometry relative="1" as="geometry" />
        </mxCell>
        <mxCell id="W-AfqyP43kVuN8w4P5an-132" value="HoraEntrada" style="ellipse;whiteSpace=wrap;html=1;fillColor=#f8cecc;strokeColor=#b85450;" vertex="1" parent="1">
          <mxGeometry x="-545" y="520" width="120" height="80" as="geometry" />
        </mxCell>
        <mxCell id="W-AfqyP43kVuN8w4P5an-133" style="edgeStyle=orthogonalEdgeStyle;rounded=0;orthogonalLoop=1;jettySize=auto;html=1;exitX=0.25;exitY=1;exitDx=0;exitDy=0;entryX=0.711;entryY=0.067;entryDx=0;entryDy=0;entryPerimeter=0;endArrow=none;endFill=0;" edge="1" parent="1" source="W-AfqyP43kVuN8w4P5an-125" target="W-AfqyP43kVuN8w4P5an-132">
          <mxGeometry relative="1" as="geometry" />
        </mxCell>
        <mxCell id="W-AfqyP43kVuN8w4P5an-134" value="DataSortida" style="ellipse;whiteSpace=wrap;html=1;fillColor=#f8cecc;strokeColor=#b85450;" vertex="1" parent="1">
          <mxGeometry x="-610" y="415" width="120" height="80" as="geometry" />
        </mxCell>
        <mxCell id="W-AfqyP43kVuN8w4P5an-135" style="edgeStyle=orthogonalEdgeStyle;rounded=0;orthogonalLoop=1;jettySize=auto;html=1;exitX=1;exitY=0.5;exitDx=0;exitDy=0;entryX=0.013;entryY=0.565;entryDx=0;entryDy=0;entryPerimeter=0;endArrow=none;endFill=0;" edge="1" parent="1" source="W-AfqyP43kVuN8w4P5an-134" target="W-AfqyP43kVuN8w4P5an-125">
          <mxGeometry relative="1" as="geometry" />
        </mxCell>
        <mxCell id="W-AfqyP43kVuN8w4P5an-136" value="HoraSortida" style="ellipse;whiteSpace=wrap;html=1;fillColor=#f8cecc;strokeColor=#b85450;" vertex="1" parent="1">
          <mxGeometry x="-620" y="325" width="120" height="80" as="geometry" />
        </mxCell>
        <mxCell id="W-AfqyP43kVuN8w4P5an-137" style="edgeStyle=orthogonalEdgeStyle;rounded=0;orthogonalLoop=1;jettySize=auto;html=1;exitX=1;exitY=0.5;exitDx=0;exitDy=0;entryX=0;entryY=0.25;entryDx=0;entryDy=0;endArrow=none;endFill=0;" edge="1" parent="1" source="W-AfqyP43kVuN8w4P5an-136" target="W-AfqyP43kVuN8w4P5an-125">
          <mxGeometry relative="1" as="geometry">
            <mxPoint x="-463" y="344" as="targetPoint" />
            <Array as="points">
              <mxPoint x="-480" y="365" />
              <mxPoint x="-480" y="395" />
              <mxPoint x="-463" y="395" />
              <mxPoint x="-463" y="415" />
            </Array>
          </mxGeometry>
        </mxCell>
        <mxCell id="W-AfqyP43kVuN8w4P5an-138" value="IdRecinte" style="ellipse;whiteSpace=wrap;html=1;fillColor=#f8cecc;strokeColor=#b85450;" vertex="1" parent="1">
          <mxGeometry x="-440" y="290" width="120" height="80" as="geometry" />
        </mxCell>
        <mxCell id="W-AfqyP43kVuN8w4P5an-140" style="edgeStyle=orthogonalEdgeStyle;rounded=0;orthogonalLoop=1;jettySize=auto;html=1;exitX=0.5;exitY=1;exitDx=0;exitDy=0;entryX=0.611;entryY=-0.021;entryDx=0;entryDy=0;entryPerimeter=0;endArrow=none;endFill=0;" edge="1" parent="1" source="W-AfqyP43kVuN8w4P5an-138" target="W-AfqyP43kVuN8w4P5an-125">
          <mxGeometry relative="1" as="geometry" />
        </mxCell>
        <mxCell id="W-AfqyP43kVuN8w4P5an-144" style="edgeStyle=orthogonalEdgeStyle;rounded=0;orthogonalLoop=1;jettySize=auto;html=1;exitX=1;exitY=0.5;exitDx=0;exitDy=0;entryX=0.25;entryY=1;entryDx=0;entryDy=0;endArrow=none;endFill=0;" edge="1" parent="1" source="W-AfqyP43kVuN8w4P5an-143" target="W-AfqyP43kVuN8w4P5an-1">
          <mxGeometry relative="1" as="geometry" />
        </mxCell>
        <mxCell id="W-AfqyP43kVuN8w4P5an-145" style="edgeStyle=orthogonalEdgeStyle;rounded=0;orthogonalLoop=1;jettySize=auto;html=1;exitX=0;exitY=0.5;exitDx=0;exitDy=0;entryX=1;entryY=0.5;entryDx=0;entryDy=0;endArrow=none;endFill=0;" edge="1" parent="1" source="W-AfqyP43kVuN8w4P5an-143" target="W-AfqyP43kVuN8w4P5an-125">
          <mxGeometry relative="1" as="geometry" />
        </mxCell>
        <mxCell id="W-AfqyP43kVuN8w4P5an-146" style="edgeStyle=orthogonalEdgeStyle;rounded=0;orthogonalLoop=1;jettySize=auto;html=1;exitX=0.5;exitY=1;exitDx=0;exitDy=0;endArrow=none;endFill=0;" edge="1" parent="1" source="W-AfqyP43kVuN8w4P5an-143" target="W-AfqyP43kVuN8w4P5an-90">
          <mxGeometry relative="1" as="geometry">
            <Array as="points">
              <mxPoint x="-100" y="520" />
              <mxPoint x="-100" y="570" />
              <mxPoint x="-200" y="570" />
              <mxPoint x="-200" y="630" />
              <mxPoint x="-290" y="630" />
            </Array>
          </mxGeometry>
        </mxCell>
        <mxCell id="W-AfqyP43kVuN8w4P5an-143" value="Accedeix" style="rhombus;whiteSpace=wrap;html=1;fillColor=#d5e8d4;strokeColor=#82b366;" vertex="1" parent="1">
          <mxGeometry x="-60" y="420" width="110" height="100" as="geometry" />
        </mxCell>
      </root>
    </mxGraphModel>
  </diagram>
</mxfile>
